<svg width="37" height="21" viewBox="0 0 37 21" fill="none" xmlns="http://www.w3.org/2000/svg">
<path fill-rule="evenodd" clip-rule="evenodd" d="M17.6573 0.759089C18.166 0.413637 18.834 0.413637 19.3427 0.759089L35.8427 11.9642C36.5281 12.4296 36.7063 13.3625 36.2409 14.0478C35.7755 14.7331 34.8427 14.9114 34.1573 14.446L18.5 3.81318L2.84272 14.446C2.15739 14.9114 1.22452 14.7331 0.759115 14.0478C0.293705 13.3625 0.471991 12.4296 1.15733 11.9642L17.6573 0.759089Z" />
<path fill-rule="evenodd" clip-rule="evenodd" d="M17.6573 6.75909C18.166 6.41364 18.834 6.41364 19.3427 6.75909L35.8427 17.9642C36.5281 18.4296 36.7063 19.3625 36.2409 20.0478C35.7755 20.7331 34.8427 20.9114 34.1573 20.446L18.5 9.81318L2.84272 20.446C2.15739 20.9114 1.22452 20.7331 0.759115 20.0478C0.293705 19.3625 0.471991 18.4296 1.15733 17.9642L17.6573 6.75909Z" />
</svg>
